<svg xmlns="http://www.w3.org/2000/svg" viewBox="0 0 1600 1200" shape-rendering="crispEdges" preserveAspectRatio="none"><g fill="none" stroke="#fff" stroke-opacity="0.07" stroke-width="1"><rect x="0" y="0" width="600" height="450"/><rect x="1000" y="750" width="600" height="450"/><rect x="1000" y="0" width="400" height="300"/><rect x="600" y="450" width="400" height="300"/><rect x="1200" y="450" width="400" height="300"/><rect x="0" y="750" width="400" height="300"/><rect x="600" y="750" width="400" height="300"/><rect x="600" y="0" width="200" height="150"/><rect x="800" y="0" width="200" height="150"/><rect x="1400" y="0" width="200" height="150"/><rect x="600" y="150" width="200" height="150"/><rect x="800" y="150" width="200" height="150"/><rect x="1400" y="150" width="200" height="150"/><rect x="600" y="300" width="200" height="150"/><rect x="800" y="300" width="200" height="150"/><rect x="1000" y="300" width="200" height="150"/><rect x="1200" y="300" width="200" height="150"/><rect x="1400" y="300" width="200" height="150"/><rect x="0" y="450" width="200" height="150"/><rect x="200" y="450" width="200" height="150"/><rect x="400" y="450" width="200" height="150"/><rect x="1000" y="450" width="200" height="150"/><rect x="0" y="600" width="200" height="150"/><rect x="200" y="600" width="200" height="150"/><rect x="400" y="600" width="200" height="150"/><rect x="1000" y="600" width="200" height="150"/><rect x="400" y="750" width="200" height="150"/><rect x="400" y="900" width="200" height="150"/><rect x="0" y="1050" width="200" height="150"/><rect x="200" y="1050" width="200" height="150"/><rect x="400" y="1050" width="200" height="150"/><rect x="600" y="1050" width="200" height="150"/><rect x="800" y="1050" width="200" height="150"/></g></svg>
